# xmcd CD database file
#
# Track frame offsets:
#	150
#	11309
#	22478
#	32971
#	43394
#	58543
#	73700
#	83144
#	92459
#	101978
#	111530
#	122398
#	133221
#	147166
#	161111
#	177159
#
# Disc length: 2575 seconds
#
# Revision: 0
# Processed by: cddbd v1.5.2PL0 Copyright (c) Steve Scherf et al.
# Submitted via: jetAudio 7
#
DISCID=e80a0d10
DTITLE=Steve Cohen - Country Classics
DYEAR=1900
DGENRE=Country
TTITLE0=Blue Bayou
TTITLE1=Blue Bayou playback
TTITLE2=Dont Tell Me Your Troubles
TTITLE3=Dont Tell Me Your Troubles playback
TTITLE4=He Stopped Loving Her Today
TTITLE5=He Stopped Loving Her Today playback
TTITLE6=Honky Tonk Blues
TTITLE7=Honky Tonk Blues playback
TTITLE8=If Youve Got the Money
TTITLE9=If Youve Got the Money playback
TTITLE10=The Only Daddy That Will Walk the Line
TTITLE11=The Only Daddy That Will Walk the Line playback
TTITLE12=Orange Blossom Special
TTITLE13=Orange Blossom Special playback
TTITLE14=Whiskey River
TTITLE15=Whiskey River playback
EXTD=
EXTT0=
EXTT1=
EXTT2=
EXTT3=
EXTT4=
EXTT5=
EXTT6=
EXTT7=
EXTT8=
EXTT9=
EXTT10=
EXTT11=
EXTT12=
EXTT13=
EXTT14=
EXTT15=
PLAYORDER=
